<svg width="36" height="36" viewBox="0 0 36 36" fill="none" xmlns="http://www.w3.org/2000/svg">
<path d="M0 36V33H31.95V36H0ZM7.55 30C5.45 30 3.66667 29.275 2.2 27.825C0.733333 26.375 0 24.6 0 22.5V0H33C33.825 0 34.5313 0.29375 35.1188 0.88125C35.7063 1.46875 36 2.175 36 3V11C36 11.825 35.7063 12.5313 35.1188 13.1188C34.5313 13.7063 33.825 14 33 14H28.2V22.5C28.2 24.6 27.4667 26.375 26 27.825C24.5333 29.275 22.75 30 20.65 30H7.55ZM7.55 27H20.6489C21.8496 27 22.9083 26.5417 23.825 25.625C24.7417 24.7083 25.2 23.6667 25.2 22.5V3H3V22.5C3 23.6667 3.46667 24.7083 4.4 25.625C5.33333 26.5417 6.38333 27 7.55 27ZM28.2 11H33V3H28.2V11Z" fill="#EACCB3"/>
</svg>
