<svg width="36" height="36" viewBox="0 0 36 36" fill="none" xmlns="http://www.w3.org/2000/svg">
<path d="M0 36V33H31.95V36H0ZM7.55 30C5.45 30 3.66667 29.275 2.2 27.825C0.733333 26.375 0 24.6 0 22.5V0H33C33.8 0 34.5 0.3 35.1 0.9C35.7 1.5 36 2.2 36 3V11C36 11.8 35.7 12.5 35.1 13.1C34.5 13.7 33.8 14 33 14H28.2V22.5C28.2 24.6 27.475 26.375 26.025 27.825C24.575 29.275 22.7833 30 20.65 30H7.55ZM28.2 11H33V3H28.2V11ZM7.55 27H20.6489C21.8496 27 22.9083 26.5417 23.825 25.625C24.7417 24.7083 25.2 23.6667 25.2 22.5V3H11.85V4.65L15.4 7.55C15.4333 7.58333 15.5833 7.88333 15.85 8.45V15.95C15.85 16.27 15.7333 16.55 15.5 16.79C15.2667 17.03 14.9667 17.15 14.6 17.15H7.05C6.68333 17.15 6.38333 17.03 6.15 16.79C5.91667 16.55 5.8 16.27 5.8 15.95V8.45C5.8 8.28333 5.95 7.98333 6.25 7.55L9.85 4.65V3H3V22.5C3 23.6667 3.46667 24.7083 4.4 25.625C5.33333 26.5417 6.38333 27 7.55 27Z" fill="#EACCB3"/>
</svg>
