<svg width="36" height="36" viewBox="0 0 36 36" fill="none" xmlns="http://www.w3.org/2000/svg">
<path d="M14.1 29.9C10.2667 29.9 6.95833 28.5417 4.175 25.825C1.39167 23.1083 0 19.8833 0 16.15V3C0 2.2 0.3 1.5 0.9 0.9C1.5 0.3 2.2 0 3 0H29.45C31.259 0 32.803 0.616667 34.0818 1.85C35.3606 3.08333 36 4.6 36 6.4C36 8.2 35.3606 9.71667 34.0818 10.95C32.803 12.1833 31.259 12.8 29.45 12.8H28.2V16.15C28.2 19.8833 26.8083 23.1083 24.025 25.825C21.2417 28.5417 17.9333 29.9 14.1 29.9ZM3 9.8H25.2V3H3V9.8ZM14.1 26.9C17.1333 26.9 19.7417 25.8417 21.925 23.725C24.1083 21.6083 25.2 19.0833 25.2 16.15V12.8H3V16.15C3 19.0833 4.09167 21.6083 6.275 23.725C8.45833 25.8417 11.0667 26.9 14.1 26.9ZM28.2 9.8H29.45C30.4167 9.8 31.25 9.475 31.95 8.825C32.65 8.175 33 7.36667 33 6.4C33 5.43333 32.65 4.625 31.95 3.975C31.25 3.325 30.4167 3 29.45 3H28.2V9.8ZM0 36V33H31.7V36H0Z" fill="#EACCB3"/>
</svg>
